<svg xmlns="http://www.w3.org/2000/svg" viewBox="0 0 500 500"><g id="freepik--background-simple--inject-11"><path d="M349,444s80.18-66.18,99.14-169.36S389.44,150.73,343.89,115.79,281.6,41.52,215.58,39.14s-100.18,24.21-124,75.71-36.62,104.37-44.14,156-3.85,92.82,38.51,113.35,62,11.51,82.16,35.17S280,496.54,349,444Z" style="fill:#3899FA"></path><path d="M349,444s80.18-66.18,99.14-169.36S389.44,150.73,343.89,115.79,281.6,41.52,215.58,39.14s-100.18,24.21-124,75.71-36.62,104.37-44.14,156-3.85,92.82,38.51,113.35,62,11.51,82.16,35.17S280,496.54,349,444Z" style="fill:#fff;opacity:0.7000000000000001"></path></g><g id="freepik--Seat--inject-11"><path d="M222.73,361.26h83.93a42.46,42.46,0,0,1,42.46,42.46v48.77a0,0,0,0,1,0,0H180.27a0,0,0,0,1,0,0V403.72A42.46,42.46,0,0,1,222.73,361.26Z" style="fill:#9e9e9e"></path><path d="M349.12,453H180.27a.51.51,0,0,1-.5-.5V403.72a43,43,0,0,1,43-43h83.93a43,43,0,0,1,43,43v48.77A.5.5,0,0,1,349.12,453Zm-168.35-1H348.62V403.72a42,42,0,0,0-42-42H222.73a42,42,0,0,0-42,42Z" style="fill:#263238"></path></g><g id="freepik--Character--inject-11"><path d="M277.82,214.64s15-13.3,31.78-3,20.94,25.87,21.92,37.69,15.28,13.31,16,25.13-15.28,15-11.34,26.36,11.58,13.31,8.38,23.16-12.32,5.17-8.62,14.29,12.07,12.32,10.59,21.43-7.88,9.86-7.14,15.52,5.91,4.44,5.66,2.46l-.24-2s6.65,2.71,1.72,11.58-14,8.38-17-.24-2-32.52-11.82-39.17-30.3-9.12-36.46-18.23,3-27.35,3-27.35,9.12-35.72,5.42-46.56-11.33-24.64-12.32-30.55A25,25,0,0,1,277.82,214.64Z" style="fill:#263238"></path><path d="M337.53,394.27l-.7,0c-3.46-.31-6.36-2.92-7.75-7-.94-2.74-1.47-6.85-2.09-11.62-1.31-10.18-2.95-22.85-9.54-27.3-3.93-2.65-9.49-4.6-15.37-6.67-8.59-3-17.46-6.12-21.23-11.69-6.15-9.11,2.27-26.53,2.9-27.8.39-1.54,9-35.84,5.42-46.23-1.68-4.93-4.14-10.38-6.51-15.64-2.84-6.28-5.28-11.71-5.83-15a25.32,25.32,0,0,1,.51-10.82l0-.13.11-.1c.15-.13,15.5-13.43,32.37-3,13.28,8.2,20.74,21,22.16,38.07.47,5.69,4.07,8.84,7.88,12.18s7.75,6.81,8.14,13c.36,5.82-3.11,9.55-6.46,13.15-3.54,3.81-6.88,7.4-4.9,13.08a38.27,38.27,0,0,0,5.29,9.78c2.87,4.13,5.13,7.39,3.08,13.69a11.82,11.82,0,0,1-6.61,7.44c-2.48,1.3-3.84,2-2,6.51a32.88,32.88,0,0,0,5.57,8.6c3.08,3.78,6,7.35,5.05,13.1a18.06,18.06,0,0,1-4.65,9.47c-1.64,2-2.82,3.37-2.49,5.91.39,3,2.05,3.82,3.35,3.66.79-.1,1.39-.58,1.33-1.07l-.36-2.82.79.32a6.62,6.62,0,0,1,3.47,3.78c.83,2.37.33,5.22-1.49,8.51C344.63,391.82,341.14,394.27,337.53,394.27ZM278.26,214.92a24.93,24.93,0,0,0-.44,10.23c.52,3.14,3.06,8.78,5.75,14.74,2.38,5.28,4.85,10.75,6.55,15.73,3.7,10.85-5,45.38-5.41,46.84l0,.1c-.09.18-8.91,18.08-3,26.85,3.58,5.29,12.3,8.35,20.73,11.31,5.94,2.09,11.56,4.06,15.6,6.78,7,4.71,8.64,17.62,10,28,.6,4.71,1.13,8.79,2,11.42,1.29,3.75,3.8,6.05,6.9,6.33,3.44.31,6.88-2,9.19-6.16,1.68-3,2.16-5.59,1.43-7.67a5.63,5.63,0,0,0-2.09-2.73l.12,1c.13,1.07-.81,2-2.19,2.19-1.9.24-4-1.06-4.47-4.52-.39-3,1-4.69,2.71-6.68a17,17,0,0,0,4.44-9c.86-5.31-1.79-8.56-4.85-12.31a34.48,34.48,0,0,1-5.72-8.85c-2.15-5.33-.11-6.41,2.48-7.78,2.1-1.11,4.72-2.5,6.13-6.85,1.9-5.83-.13-8.77-3-12.82a39.26,39.26,0,0,1-5.42-10c-2.17-6.25,1.53-10.23,5.11-14.09,3.21-3.45,6.53-7,6.2-12.41-.36-5.73-4-8.9-7.8-12.26s-7.71-6.77-8.22-12.85c-1.41-17-8.5-29.17-21.69-37.31C293.83,202.53,279.62,213.78,278.26,214.92Z" style="fill:#263238"></path><path d="M290.38,303.08s-6.4,18.23-7.14,24.14-.74,20.94.49,34-1,91.4-1,91.4H218.2s3.45-32.28,8.62-74.4,18.23-70,24.64-78.84,9.11-13.55,9.11-13.55Z" style="fill:#c7c7c7"></path><path d="M282.74,453.12H218.2a.48.48,0,0,1-.37-.17.52.52,0,0,1-.13-.39c0-.32,3.51-32.76,8.63-74.4,5.24-42.73,18.46-70.4,24.72-79.07s9.06-13.46,9.09-13.51a.5.5,0,0,1,.68-.18l29.81,17.25a.5.5,0,0,1,.22.6c-.06.18-6.39,18.24-7.12,24s-.72,21,.5,33.88-1,90.68-1,91.46A.49.49,0,0,1,282.74,453.12Zm-64-1h63.5c.18-6.65,2.14-78.51,1-90.85-1.22-13-1.24-28.11-.49-34.11.69-5.49,6.07-21.1,7-23.85l-29-16.8c-.82,1.36-3.62,5.87-8.89,13.17-6.2,8.59-19.32,36.08-24.54,78.6C222.57,416.94,219.24,447.66,218.76,452.12Z" style="fill:#263238"></path><path d="M263.93,294.9s6.71,15.26,20.11,22.57c2.12-7.17,5-15.3,5-15.3l-24.72-14.3Z" style="fill:#263238"></path><path d="M284.35,318.2l-.55-.29c-13.39-7.31-20.26-22.66-20.32-22.81l-.05-.11.42-8,25.78,14.91-.14.4c0,.08-2.88,8.2-5,15.27Zm-19.91-23.4c.62,1.34,7.14,15,19.3,21.93,1.81-6.05,4.09-12.68,4.67-14.33l-23.65-13.69Z" style="fill:#263238"></path><path d="M264.76,334.37c-12.7-3.49-19.27-16.34-21.12-20.56-6.21,14-13.32,35.91-16.82,64.41-5.17,42.12-8.62,74.4-8.62,74.4h64.54s2.22-78.34,1-91.4a237.64,237.64,0,0,1-.91-27.69A30.64,30.64,0,0,1,264.76,334.37Z" style="fill:#fff"></path><path d="M282.74,453.12H218.2a.48.48,0,0,1-.37-.17.52.52,0,0,1-.13-.39c0-.32,3.51-32.76,8.63-74.4,3.93-32,12.25-54.2,16.85-64.56a.51.51,0,0,1,.46-.29h0a.49.49,0,0,1,.46.3c1.7,3.88,8.23,16.83,20.79,20.27a29.77,29.77,0,0,0,17.77-.82.51.51,0,0,1,.46.07.52.52,0,0,1,.2.42,235.66,235.66,0,0,0,.91,27.62c1.22,12.94-1,90.68-1,91.46A.49.49,0,0,1,282.74,453.12Zm-64-1h63.5c.18-6.65,2.14-78.51,1-90.85a240.24,240.24,0,0,1-.93-27,30.65,30.65,0,0,1-17.67.62h0c-12-3.3-18.68-15-21-19.82-4.66,10.7-12.54,32.36-16.33,63.25C222.57,416.94,219.24,447.66,218.76,452.12Z" style="fill:#263238"></path><path d="M220.49,213.78s.86-15.33-2.27-27.54S204,134.85,204,132.3s8.23-8.24,9.65-10.23,1.42-6,2.56-9.08,3.4-7.95,7.09-10.51,2.28-5.11-2.55-3.4-9.37,8.23-9.65,9.37-2.28.56-3.41-1.71-8.52-25.55-9.94-26.69-2.39,0-2.19,1.3,3.15,15.74,3.15,16-.31.31-.92.31-5.78-19.9-6.9-21-2.74-.91-2.94-.1,4,20.1,4.16,21.22-.92,1.73-1.32,1.42-6.5-21.12-7.31-21.62-2.64-1-3,1.42,5.89,21.12,5.59,22-1.32,1-1.53.51-8-14.62-8.63-14.72-2.13-.21-1.42,2.13,6.5,18.58,6.5,18.58,4.06,17.76,5.89,20.61,2.84,4.36,2.84,4.36-.76,56.51.73,66.71a91,91,0,0,0,4.67,18.27S210,211.13,220.49,213.78Z" style="fill:#c7c7c7"></path><path d="M195.1,218a.65.65,0,0,1-.19,0,.53.53,0,0,1-.27-.28,91.79,91.79,0,0,1-4.71-18.38c-1.45-10-.78-62.71-.73-66.63-.28-.42-1.24-1.88-2.76-4.24-1.85-2.89-5.79-20-6-20.77S174.7,91.43,174,89.11a2.36,2.36,0,0,1,.17-2.32,1.85,1.85,0,0,1,1.82-.45c1.05.18,9,14.89,9,15a1,1,0,0,0,.19,0,.68.68,0,0,0,.39-.45c0-.46-1.11-4.28-2.1-7.64-2.2-7.48-3.74-12.89-3.5-14.31a2.56,2.56,0,0,1,1.33-2.09,2.74,2.74,0,0,1,2.47.32c.52.33,1.44,3,4.93,14.06,1.05,3.33,2.13,6.78,2.46,7.57a1,1,0,0,0,.28-.19.79.79,0,0,0,.21-.72c-.05-.25-.29-1.42-.64-3.09-3.11-14.79-3.64-17.86-3.52-18.34a1.41,1.41,0,0,1,1-1,2.89,2.89,0,0,1,2.73.84c.64.64,2,5,4.06,12.12,1.09,3.68,2.31,7.82,2.75,8.75h.12c-.16-.87-.84-4.29-1.45-7.34C196,86,195.2,82.1,195.1,81.43a2,2,0,0,1,.83-2.15,1.85,1.85,0,0,1,2.16.38C199,80.35,201,86,205,97.6c1.49,4.35,2.78,8.11,3.19,8.92.72,1.45,1.78,2,2.26,2a.21.21,0,0,0,.21-.19c.33-1.31,5-8,10-9.72,2.57-.9,4.54-.73,5.14.46s-.26,2.54-2.13,3.84c-3.7,2.56-5.92,7.52-6.91,10.26a25.46,25.46,0,0,0-1,4.09c-.38,2-.73,3.87-1.62,5.11a26.59,26.59,0,0,1-3.48,3.29c-2.43,2.08-6.08,5.22-6.08,6.65s4.83,19.31,8.72,33.55c2.24,8.2,4.35,16,5.46,20.27,3.1,12.14,2.29,27.53,2.28,27.69a.48.48,0,0,1-.2.37.52.52,0,0,1-.42.09c-10.21-2.58-24.92,3.62-25.07,3.69A.71.71,0,0,1,195.1,218ZM175.44,87.29a.73.73,0,0,0-.53.16c-.08.1-.25.42,0,1.37.7,2.3,6.43,18.4,6.49,18.56s4.08,17.77,5.84,20.51,2.84,4.35,2.84,4.35a.6.6,0,0,1,.08.29c0,.56-.74,56.58.72,66.62a92.39,92.39,0,0,0,4.47,17.69c2.63-1.07,15.09-5.77,24.63-3.68.11-2.94.44-16.15-2.28-26.8-1.1-4.31-3.22-12.05-5.45-20.24-5.13-18.8-8.76-32.23-8.76-33.82,0-1.75,2.66-4.17,6.42-7.41a26.38,26.38,0,0,0,3.32-3.11,13,13,0,0,0,1.46-4.72,27.62,27.62,0,0,1,1-4.24c1-2.85,3.35-8,7.28-10.75,1.58-1.09,2-2.09,1.81-2.56s-1.47-.83-3.92,0c-4.55,1.6-9.07,8-9.33,9a1.19,1.19,0,0,1-1.07.93c-.92.1-2.33-.65-3.27-2.53-.43-.87-1.67-4.48-3.24-9-2.14-6.26-5.73-16.72-6.57-17.49-.41-.33-.78-.43-1-.29a1.13,1.13,0,0,0-.35,1.13c.1.65.89,4.57,1.65,8.37,1.27,6.34,1.51,7.57,1.51,7.74,0,.81-.82.81-1.42.81s-.66,0-3.45-9.47C193,84.05,191.1,77.64,190.56,77a1.89,1.89,0,0,0-1.75-.58.47.47,0,0,0-.35.25C188.41,77.6,191,90,192,94.6c.36,1.68.6,2.86.65,3.11a1.77,1.77,0,0,1-.8,1.86,1.18,1.18,0,0,1-1.31.05c-.25-.18-.37-.46-2.77-8.09-1.62-5.14-4.06-12.91-4.58-13.57a1.81,1.81,0,0,0-1.46-.2c-.38.17-.63.62-.75,1.34-.22,1.31,1.91,8.57,3.47,13.87,1.93,6.55,2.24,7.79,2.09,8.24a1.63,1.63,0,0,1-1.44,1.15,1,1,0,0,1-1-.62c-.33-.76-7.3-13.25-8.37-14.43Z" style="fill:#263238"></path><path d="M197.1,127a.49.49,0,0,1-.45-.29,5.41,5.41,0,0,1-.56-2.7c.22-3.77,4-7.21,4.2-7.35a.5.5,0,1,1,.67.75s-3.68,3.3-3.87,6.66a4.39,4.39,0,0,0,.46,2.21.5.5,0,0,1-.24.67A.54.54,0,0,1,197.1,127Z" style="fill:#263238"></path><path d="M200.41,130.47a.47.47,0,0,1-.25-.07,10.35,10.35,0,0,1-2.1-1.7.5.5,0,0,1,0-.71.49.49,0,0,1,.7,0,10.13,10.13,0,0,0,1.88,1.53.5.5,0,0,1-.25.93Z" style="fill:#263238"></path><path d="M186.18,103.28a.52.52,0,0,1-.44-.25.5.5,0,0,1,.19-.68c.25-.15,6.11-3.47,10.63-3.68a.5.5,0,0,1,.53.47.51.51,0,0,1-.48.53c-4.29.2-10.12,3.51-10.18,3.54A.47.47,0,0,1,186.18,103.28Z" style="fill:#263238"></path><path d="M246.9,331.61S234.12,367.38,229,396.06a515.91,515.91,0,0,0-6.53,56.5H189.83s7.95-61.33,7.67-64.17,6.24-49.12,6.81-54.79-1.13-14.48-4.83-22.15-8.8-17.89-7.66-25.27a94,94,0,0,1,2.84-12.78s1.13-19.3.28-29.24-2-28.11-2-28.11,8.24-6.24,16.19-6.81,14.76,4,14.76,4,1.14,27.26,3.69,35.49,7.67,23,7.67,23,9.65,15.62,10.5,27.26-3.12,18.17-2.27,22.71A49.31,49.31,0,0,0,246.9,331.61Z" style="fill:#3899FA"></path><path d="M222.48,453.06H189.83a.5.5,0,0,1-.49-.57c2.74-21.19,7.88-61.85,7.66-64.05-.18-1.76,2-18.13,4.59-37.72,1.09-8.16,2-15.2,2.22-17.17.6-5.93-1.33-14.72-4.78-21.88l-.41-.86c-3.75-7.77-8.41-17.44-7.3-24.71a98.66,98.66,0,0,1,2.84-12.79c.07-1.2,1.1-19.59.28-29.11-.84-9.83-2-27.93-2-28.12a.49.49,0,0,1,.19-.43c.34-.25,8.45-6.34,16.45-6.91s14.8,3.87,15.08,4.06a.51.51,0,0,1,.22.39c0,.27,1.16,27.29,3.67,35.37,2.45,7.88,7.31,21.95,7.64,22.93.7,1.13,9.72,16,10.55,27.43a50.32,50.32,0,0,1-1.5,15.77c-.62,2.83-1.12,5.06-.78,6.89a49.47,49.47,0,0,0,3.37,9.81.53.53,0,0,1,0,.39c-.13.35-12.82,36.06-17.87,64.37A523,523,0,0,0,223,452.58.5.5,0,0,1,222.48,453.06Zm-32.08-1H222A521.59,521.59,0,0,1,228.52,396c4.87-27.3,16.82-61.45,17.84-64.34a48.58,48.58,0,0,1-3.36-9.87c-.38-2,.14-4.34.79-7.28A49.74,49.74,0,0,0,245.26,299c-.83-11.38-10.33-26.87-10.43-27a.3.3,0,0,1,0-.1c-.06-.14-5.15-14.86-7.68-23-2.44-7.86-3.57-32.37-3.7-35.35-1.2-.74-7.32-4.25-14.24-3.76s-14.36,5.59-15.7,6.55c.15,2.31,1.18,18.67,2,27.83.85,9.86-.27,29.12-.28,29.31a.42.42,0,0,1,0,.12,98,98,0,0,0-2.82,12.71c-1.07,6.95,3.52,16.47,7.21,24.11l.42.86c3.52,7.32,5.48,16.33,4.87,22.42-.2,2-1.14,9-2.23,17.2-2,15.07-4.76,35.7-4.59,37.49C198.27,391.09,191.25,445.5,190.4,452.06Z" style="fill:#263238"></path><path d="M213.32,305a.59.59,0,0,1-.22-.05.5.5,0,0,1-.23-.67c1.55-3.2,3-5.4,4.47-6.55a.5.5,0,1,1,.63.77c-1.3,1.06-2.71,3.15-4.2,6.22A.49.49,0,0,1,213.32,305Z" style="fill:#263238"></path><path d="M206,326.43h-.12a.51.51,0,0,1-.36-.61A156.55,156.55,0,0,1,210.84,309a.51.51,0,0,1,.65-.28.5.5,0,0,1,.28.65,153.79,153.79,0,0,0-5.27,16.72A.5.5,0,0,1,206,326.43Z" style="fill:#263238"></path><path d="M206.3,317.06a.5.5,0,0,1-.5-.5,87.28,87.28,0,0,1,4-25.72.5.5,0,0,1,.95.33,86.12,86.12,0,0,0-3.95,25.39A.5.5,0,0,1,206.3,317.06Z" style="fill:#263238"></path><path d="M226.17,369.3h-.08c-15.9-2.56-23.52-12-23.59-12.11a.51.51,0,0,1,.08-.71.5.5,0,0,1,.7.09c.08.09,7.47,9.25,23,11.74a.5.5,0,0,1,.42.57A.5.5,0,0,1,226.17,369.3Z" style="fill:#263238"></path><path d="M216.52,391.45h0a.5.5,0,0,1-.47-.54c.11-1.65.29-3.52.53-5.56a.5.5,0,1,1,1,.11c-.24,2-.41,3.88-.52,5.52A.5.5,0,0,1,216.52,391.45Z" style="fill:#263238"></path><path d="M217.84,380h-.08a.51.51,0,0,1-.42-.57c1.62-10.87,4.06-22,4.09-22.13a.5.5,0,0,1,1,.21c0,.11-2.45,11.24-4.07,22.07A.49.49,0,0,1,217.84,380Z" style="fill:#263238"></path><path d="M279.79,216.61s-6.9-6.41-16,2.46-9.86,22.91-10.35,29.81S237.17,246.42,230,260s2.95,23.15,7.14,28.08,2.71,10.84-2.46,15.28-8.13,12.31-3.21,18.72,13.06,6.65,10.84,11.08-6.16,1.73-6.16,1.73,3.21,7.64,11.09,2.46,7.88-14.29,4.93-19-2-11.33,1.23-12.31,8.87-5.42,7.88-12.08-4.43-18.47-1-24.88,4.43-15,4.43-15,10.59-3.7,13.06-6.66a30.55,30.55,0,0,0,4.19-7.88S290.14,227.94,279.79,216.61Z" style="fill:#263238"></path><path d="M242.16,339.62a6.35,6.35,0,0,1-1.84-.27,8.07,8.07,0,0,1-4.6-4.3l-.65-1.55,1.4.95a4.3,4.3,0,0,0,3.11.63,3.75,3.75,0,0,0,2.32-2.17c1-2-.34-2.86-3.44-4.67a23.42,23.42,0,0,1-7.35-5.89c-5.06-6.56-2.18-14.73,3.27-19.4,5.28-4.53,6.2-10.11,2.41-14.57-.33-.4-.7-.82-1.1-1.27-4.49-5.1-12.84-14.6-6.11-27.38,4.3-8.15,11.63-8.27,17-8.36,4.07-.07,6.2-.21,6.37-2.52l0-.61c.51-7.26,1.46-20.78,10.46-29.53,9.35-9.09,16.63-2.53,16.7-2.47l0,0c10.11,11.07,2.92,22.54,2.3,23.48a30.58,30.58,0,0,1-4.26,8c-2.32,2.79-11.21,6.07-13,6.7-.21,1.63-1.33,9.09-4.45,14.9-2.68,5-1.07,13.31.22,20,.32,1.66.62,3.22.82,4.56,1.07,7.22-5.21,11.69-8.23,12.62a3.67,3.67,0,0,0-2.13,2.42,11.08,11.08,0,0,0,1.17,9.16,14.57,14.57,0,0,1-5.08,19.65A10,10,0,0,1,242.16,339.62ZM237.42,336a6.37,6.37,0,0,0,3.2,2.43c1.86.56,4,.06,6.38-1.49,7.53-5,7.61-13.8,4.77-18.29a12,12,0,0,1-1.26-10,4.62,4.62,0,0,1,2.77-3c2.77-.85,8.51-4.94,7.54-11.52-.2-1.33-.5-2.88-.81-4.52-1.32-6.86-3-15.4-.12-20.67,3.36-6.25,4.36-14.77,4.37-14.85l0-.31.3-.11c.1,0,10.49-3.68,12.83-6.5a29.91,29.91,0,0,0,4.1-7.72l.07-.13A17.76,17.76,0,0,0,279.43,217c-.42-.38-6.77-5.83-15.31,2.47-8.71,8.48-9.65,21.75-10.15,28.88l0,.61c-.24,3.33-3.54,3.39-7.35,3.45-5.39.09-12.09.2-16.11,7.83-6.42,12.16,1.34,21,6,26.25l1.11,1.28c4.13,4.85,3.14,11.13-2.52,16-5.09,4.36-7.8,12-3.13,18a22.7,22.7,0,0,0,7.06,5.63c2.84,1.66,5.28,3.09,3.83,6a4.68,4.68,0,0,1-3,2.69A4.47,4.47,0,0,1,237.42,336Z" style="fill:#263238"></path><path d="M280.77,227.57s-1.48,8.9-6.23,14.83S258.83,254,258.83,254s-2.67,19-1.49,27.88,11.72,23.93,23,24.52,16.06-3.4,20.9-7.92c6-5.55,10.68-17.49,11-21.35s-2.37-7.71-3-13.64,3.26-9.78-3-13.93-15.42-.3-18.09-6.82S285.51,226.68,280.77,227.57Z" style="fill:#c7c7c7"></path><path d="M282.53,306.92c-.72,0-1.45,0-2.22-.06-11.19-.58-22.2-15.52-23.46-25-1.18-8.86,1.37-27.23,1.48-28a.47.47,0,0,1,.27-.37c.11-.06,10.93-5.66,15.55-11.43s6.11-14.51,6.13-14.6a.49.49,0,0,1,.4-.41c3.71-.69,4.82,3.92,6,8.8a46.85,46.85,0,0,0,2,6.63c1.4,3.44,4.81,3.76,8.75,4.13,3,.29,6.37.61,9.15,2.46,4.5,3,4,5.91,3.5,9.29a19.31,19.31,0,0,0-.32,5,33.79,33.79,0,0,0,1.72,7.24c.76,2.36,1.41,4.39,1.25,6.49-.32,4.17-5.24,16.19-11.13,21.68C296.66,303.39,292.06,306.92,282.53,306.92Zm-23.24-52.63c-.31,2.28-2.54,19.31-1.45,27.48,1.22,9.11,11.79,23.53,22.52,24.1,11.51.59,16.31-3.86,20.53-7.79,6.06-5.65,10.54-17.53,10.81-21a16.48,16.48,0,0,0-1.2-6.1,34.31,34.31,0,0,1-1.76-7.45,20,20,0,0,1,.32-5.26c.52-3.29.9-5.66-3.07-8.31-2.57-1.71-5.68-2-8.68-2.29-4.09-.39-7.95-.75-9.59-4.75a49.1,49.1,0,0,1-2-6.77c-1.07-4.41-2-8.25-4.52-8.1-.34,1.77-2,9.34-6.27,14.69C270.5,248.25,260.94,253.42,259.29,254.29Z" style="fill:#263238"></path><path d="M279.65,263.23c-.33,1.67-1.48,2.85-2.58,2.64s-1.71-1.75-1.38-3.42,1.48-2.85,2.57-2.63S280,261.56,279.65,263.23Z" style="fill:#263238"></path><path d="M300.2,269.92c-.59,1.59-1.91,2.58-3,2.2s-1.42-2-.84-3.59,1.91-2.59,3-2.2S300.78,268.32,300.2,269.92Z" style="fill:#263238"></path><path d="M286.86,279.3a10,10,0,0,1-2.6-.33c-4.28-1.13-5.42-5.91-5.46-6.11a.5.5,0,0,1,.37-.6.5.5,0,0,1,.6.38s1.05,4.39,4.75,5.37,7-.75,7.28-1.2a.48.48,0,0,1,.62-.3.52.52,0,0,1,.31.65C292.45,278,289.92,279.3,286.86,279.3Z" style="fill:#263238"></path><path d="M273.72,278.94a21.73,21.73,0,0,0,9.46,6.31c6.71,2.45,10.49.44,10.49.44s-5.38,6.05-11.92,4.42S273.72,278.94,273.72,278.94Z" style="fill:#fff"></path><path d="M284.06,290.89a9.85,9.85,0,0,1-2.43-.3c-6.71-1.68-8.33-11.17-8.4-11.57a.5.5,0,0,1,.89-.39,21.55,21.55,0,0,0,9.23,6.15c6.38,2.33,10,.49,10.08.47a.51.51,0,0,1,.63.14.5.5,0,0,1,0,.64C293.84,286.25,289.64,290.89,284.06,290.89Zm-9.41-10.22c.8,2.77,2.84,7.85,7.23,8.95,4.15,1,7.86-1.23,9.86-2.83a16.84,16.84,0,0,1-8.73-1.08A24.14,24.14,0,0,1,274.65,280.67Z" style="fill:#263238"></path><path d="M282.84,257.21a1,1,0,0,1-.59-.19,8.7,8.7,0,0,0-9.52-.81,1,1,0,0,1-1.05-1.7,10.67,10.67,0,0,1,11.75.89,1,1,0,0,1-.59,1.81Z" style="fill:#263238"></path><path d="M305,265.93a1,1,0,0,1-.95-.7c-1.63-5.25-7.94-4.05-8.21-4a1,1,0,1,1-.39-2c2.88-.57,8.78-.19,10.51,5.36a1,1,0,0,1-.66,1.26A1,1,0,0,1,305,265.93Z" style="fill:#263238"></path><path d="M258.11,259.72s-3.2-6.16-6.9-.74,5.67,17,5.67,17Z" style="fill:#c7c7c7"></path><path d="M256.88,276.48a.51.51,0,0,1-.39-.19c-.39-.48-9.55-11.93-5.69-17.59,1.16-1.7,2.41-2.53,3.76-2.44,2.36.14,3.93,3.1,4,3.23a.51.51,0,0,1,.06.27L257.38,276a.52.52,0,0,1-.35.44Zm-2.49-19.23c-.93,0-1.85.68-2.77,2-2.82,4.15,2.72,12.46,4.86,15.37l1.12-14.8c-.29-.51-1.53-2.48-3.1-2.58Z" style="fill:#263238"></path><path d="M283,329.44s-7.14,38.68-6.9,71.69,1,51.49,1,51.49H336.2a197.74,197.74,0,0,0,1-39.42c-1.73-20.45-5.91-64.05-9.61-71.2s-13.3-9.6-20.69-11.82a98.06,98.06,0,0,1-13.8-5.42s.25-5.17-2.95-6.16a8.61,8.61,0,0,0-5.18-.25Z" style="fill:#3899FA"></path><path d="M336.2,453.12H277.08a.5.5,0,0,1-.5-.48c0-.19-.74-18.87-1-51.51s6.81-71.27,6.91-71.78l2-11.08a.48.48,0,0,1,.32-.38,9,9,0,0,1,5.49.23c3.07.95,3.31,5.1,3.32,6.33A98.68,98.68,0,0,0,307,329.7l1.35.4c7.16,2.13,16.07,4.77,19.65,11.67,4,7.81,8.41,56.62,9.66,71.39a199.46,199.46,0,0,1-1,39.53A.51.51,0,0,1,336.2,453.12Zm-58.64-1h58.21a199.59,199.59,0,0,0,.92-38.88c-.88-10.48-5.5-63.16-9.55-71-3.38-6.52-12.06-9.1-19-11.17l-1.36-.4a100.05,100.05,0,0,1-13.87-5.45.51.51,0,0,1-.28-.47c0-.05.19-4.8-2.6-5.66a9,9,0,0,0-4.59-.33l-1.92,10.78h0c-.07.39-7.13,39-6.89,71.59C276.82,430.86,277.44,449,277.56,452.12ZM283,329.44h0Z" style="fill:#263238"></path><path d="M319.62,369.11h-.09a.51.51,0,0,1-.41-.58c1-5.54,1.56-9.12,1.56-9.12a.52.52,0,0,1,.58-.41.51.51,0,0,1,.41.58l-1.56,9.12A.49.49,0,0,1,319.62,369.11Z" style="fill:#263238"></path><path d="M298.26,452.62a.44.44,0,0,1-.22-.05.49.49,0,0,1-.22-.67c.07-.15,7.4-14.83,9.82-22.35,1.64-5.08,7-35.39,10.1-53a.48.48,0,0,1,.57-.4.49.49,0,0,1,.41.58C315,398.27,310.17,425,308.6,429.86c-2.45,7.58-9.81,22.34-9.89,22.49A.5.5,0,0,1,298.26,452.62Z" style="fill:#263238"></path><path d="M309.84,429.22a.49.49,0,0,1-.32-.12.52.52,0,0,1-.06-.71c.32-.37,8-9.07,18-7.31a.5.5,0,0,1-.17,1c-9.47-1.65-16.95,6.89-17,7A.52.52,0,0,1,309.84,429.22Z" style="fill:#263238"></path><path d="M319,421.09a.5.5,0,0,1-.15-1c.34-.1,8.33-2.49,12.13-1.23a.52.52,0,0,1,.32.64.5.5,0,0,1-.63.31c-3.5-1.16-11.45,1.21-11.53,1.24Z" style="fill:#263238"></path><path d="M286.81,354.33c-2.11,0-3.83-2.16-3.83-4.81s1.72-4.81,3.83-4.81,3.83,2.15,3.83,4.81S288.92,354.33,286.81,354.33Zm0-8.62c-1.56,0-2.83,1.71-2.83,3.81s1.27,3.81,2.83,3.81,2.83-1.71,2.83-3.81S288.37,345.71,286.81,345.71Z" style="fill:#263238"></path><path d="M285.82,390.54a5.19,5.19,0,1,1,4.82-5.18A5,5,0,0,1,285.82,390.54Zm0-9.36a4.2,4.2,0,1,0,3.82,4.18A4,4,0,0,0,285.82,381.18Z" style="fill:#263238"></path><path d="M283.85,433.16a5.19,5.19,0,1,1,4.81-5.18A5,5,0,0,1,283.85,433.16Zm0-9.36a4.2,4.2,0,1,0,3.81,4.18A4,4,0,0,0,283.85,423.8Z" style="fill:#263238"></path><path d="M312.55,392.27h0c-1.24,0-2.66-.17-4.23-.37a.5.5,0,0,1,.13-1,40.84,40.84,0,0,0,4.13.37.5.5,0,0,1,0,1Z" style="fill:#263238"></path><path d="M302.6,390.9h-.1c-5.9-1.22-11.22-2.82-11.28-2.83a.51.51,0,0,1-.33-.63.5.5,0,0,1,.62-.33c.05,0,5.34,1.61,11.19,2.81a.51.51,0,0,1,.39.59A.5.5,0,0,1,302.6,390.9Z" style="fill:#263238"></path><path d="M281.51,343.49l-.17,0a.5.5,0,0,1-.3-.64c3-8.13,10.38-16.34,10.45-16.43a.5.5,0,0,1,.74.68c-.07.08-7.36,8.15-10.25,16.09A.5.5,0,0,1,281.51,343.49Z" style="fill:#263238"></path></g><g id="freepik--Table--inject-11"><path d="M439.4,453H66.85a.5.5,0,0,1,0-1H439.4a.5.5,0,0,1,0,1Z" style="fill:#263238"></path><path d="M439.4,459.72H66.85a.5.5,0,0,1-.5-.5.5.5,0,0,1,.5-.5H439.4a.5.5,0,0,1,.5.5A.5.5,0,0,1,439.4,459.72Z" style="fill:#263238"></path></g></svg>