<svg xmlns="http://www.w3.org/2000/svg" viewBox="0 0 500 500"><g id="freepik--Floor--inject-6"><path id="freepik--floor--inject-6" d="M77.66,254.16c-95.18,55-95.17,144,0,199s249.49,55,344.67,0,95.17-144,0-199S172.84,199.21,77.66,254.16Z" style="fill:#fafafa"></path></g><g id="freepik--Character--inject-6"><g id="freepik--character--inject-6"><g id="freepik--Backpack--inject-6"><path d="M46.62,193.59l21.18-7.77L70.5,160s-13.23,3.29-16.12,7.68C49.72,174.76,46.07,185,46.62,193.59Z" style="fill:#3899FA"></path><path d="M46.62,193.59l21.18-7.77L70.5,160s-13.23,3.29-16.12,7.68C49.72,174.76,46.07,185,46.62,193.59Z" style="opacity:0.5"></path><path d="M101.29,152c5.9.57,12.83,5.68,14.24,8.21,2.59,4.63,4.75,62.32-1,67.84-7.17,6.92-39.86,18.38-53.39,16.41-11.17-1.62-17.54-9.85-18.9-13-2.25-5.23,10.16-56.07,14.36-61.31C63.45,161.64,93.77,151.3,101.29,152Z" style="fill:#3899FA"></path><path d="M101.29,152c5.9.57,12.83,5.68,14.24,8.21,2.59,4.63,4.75,62.32-1,67.84-7.17,6.92-39.86,18.38-53.39,16.41-11.17-1.62-17.54-9.85-18.9-13-2.25-5.23,10.78-57.68,15-62.92C64.06,160,93.77,151.3,101.29,152Z" style="opacity:0.30000000000000004"></path><path d="M67.42,210.45A261.13,261.13,0,0,0,70,172.93c.53-3.68-2.93-11.22-2.93-11.22-4.36,2.16-7.94,4.5-9.8,6.82-4.19,5.24-17.21,57.67-15,62.92h0c.07.16.15.35.25.54l0,.06c.1.19.21.39.33.59l.06.09c.12.21.26.43.41.66a.22.22,0,0,1,.05.08l.53.74h0c.4.53.86,1.1,1.38,1.69h0c.26.28.53.58.82.87l0,0a26.53,26.53,0,0,0,11.6,6.94C64.87,243.35,65,227.54,67.42,210.45Z" style="fill:#3899FA"></path><path d="M70,172.93c.53-3.68-2.93-11.22-2.93-11.22-4.36,2.16-7.94,4.5-9.8,6.82a5.05,5.05,0,0,0-.44.68c0,1.07,1.77,3.67,3,4.77a41.9,41.9,0,0,0,10.14,6.39C70,175.71,70,172.93,70,172.93Z" style="opacity:0.4"></path><path d="M48.76,204c.26-.1,4.22-2.39,4.67-2.56.78-.29,10.71,8.28,11.56,9.64.59.94-3.29,23.19-3.82,24.09-.2.32-4.48,2.23-4.67,2.56-.53.9-11-7.86-11.54-9.74S47.6,204.4,48.76,204Z" style="fill:#3899FA"></path><path d="M48.76,204c.26-.1,4.22-2.39,4.67-2.56.78-.29,10.71,8.28,11.56,9.64.59.94-3.29,23.19-3.82,24.09-.2.32-4.48,2.23-4.67,2.56-.53.9-11-7.86-11.54-9.74S47.6,204.4,48.76,204Z" style="opacity:0.18"></path><path d="M60.32,213.61c.59.94-3.28,23.19-3.82,24.09S45.46,229.84,45,228s2.64-23.56,3.8-24C49.55,203.68,59.47,212.25,60.32,213.61Z" style="fill:#3899FA"></path><path d="M53.42,201.41c-.44.16-4.4,2.47-4.66,2.56.79-.29,10.71,8.28,11.56,9.64L65,211.05C64.14,209.69,54.21,201.12,53.42,201.41Z" style="opacity:0.4"></path><path d="M60.32,213.61c.59.94-3.28,23.19-3.82,24.09S45.46,229.84,45,228s2.64-23.56,3.8-24C49.55,203.68,59.47,212.25,60.32,213.61Z" style="opacity:0.30000000000000004"></path><path d="M65,211.05c-.74-.62-3.3.37-4.44,1.14S57.79,217,55,217.34s-6.11-3.64-6.63-6-.89-7.24.61-8.78,3.87-2.2,5.64-.95S65,208.94,65,211.05Z" style="fill:#3899FA"></path><path d="M65,211.05c-.74-.62-3.3.37-4.44,1.14S57.79,217,55,217.34s-6.11-3.64-6.63-6-.89-7.24.61-8.78,3.87-2.2,5.64-.95S65,208.94,65,211.05Z" style="opacity:0.1"></path><path d="M52.72,211.46a2,2,0,0,1,.71,1.95.81.81,0,0,1-1.31.56,2,2,0,0,1-.71-1.95C51.58,211.31,52.16,211.06,52.72,211.46Z" style="fill:#37474f"></path><path d="M69.92,180.37s.94-2.16-7.8-8.86c-5.76-4.42-6.46-3.51-9.39,1.88-1.66,3.06-3.42,6.85-6.11,20.2-1.17-.16-1.67-3.87.39-11.81,3.2-12.28,6.88-18.58,13.73-21.72,17.48-8,29.21-10.8,40-8.66,10.06,2,16.51,5.74,16,14.84C116.73,166.24,102,182.1,69.92,180.37Z" style="fill:#3899FA"></path><path d="M69.92,180.37s.94-2.16-7.8-8.86c-5.76-4.42-6.46-3.51-9.39,1.88-1.66,3.06-3.42,6.85-6.11,20.2-1.17-.16-1.67-3.87.39-11.81,3.2-12.28,6.88-18.58,13.73-21.72,17.48-8,29.21-10.8,40-8.66,10.06,2,16.51,5.74,16,14.84C116.73,166.24,102,182.1,69.92,180.37Z" style="opacity:0.35000000000000003"></path></g><g id="freepik--Bottom--inject-6"><path d="M82.5,419.86c.83-3.17-2.17-5.3-3.55-7.19-2.15-2.92-2.61-7.33-2.47-10.71.18-4.2-.21-7.23,2.46-10.94,3.16-4.39,7.53-9.51,22-21.9L84.29,350.6c-3.81,5.7-13.62,25.82-13.62,25.82L70,377.67a22.88,22.88,0,0,1-5.62,5.16l-1,.47c-1.68,1.1-5.9,2.17-6,6.21s1.42,5.09,3.07,8.46a12.16,12.16,0,0,1,1.78,7.28c0,3.24-.3,4.63-.44,7.54-.11,2.44,2,6.08,6.46,7.84C74.89,423.2,81.67,423,82.5,419.86Z" style="fill:#f28f8f"></path><path d="M55.09,389.53a45.64,45.64,0,0,0-5.28,8.66l4.34,6.8,4.08-6.54A24.52,24.52,0,0,1,55.09,389.53Z" style="fill:#263238"></path><path d="M54.15,405l6.31-.21a5.7,5.7,0,0,0-.49-4,8.33,8.33,0,0,0-1.74-2.3Z"></path><path d="M56.41,388.08a4.66,4.66,0,0,0-1.26,1.31c-.32.65-.13,4.81,1.11,6.87s3.29,4.27,3.72,7.16-.91,7.22.06,11.26,4.54,8.76,12.66,10.14c5.8,1,8-.06,10-1.25.8-2.57.75-3.25-2.36-5.56S56.41,388.08,56.41,388.08Z" style="fill:#263238"></path><path d="M67.63,377.92c-2.73,3.11-3.71,4.31-6.16,5.66-3,1.64-3.6,2.32-5.06,4.5-.71,3.45-.08,4.91,2.85,9.46a13.23,13.23,0,0,1,2.42,9.3c-.24,5.05-2.07,7.37,3.71,12.75,4.5,4.2,14.64,4.85,17.49,2.16,2.6-6.8-3.46-6.53-4.63-13.89a24.56,24.56,0,0,1,.64-12.09,33.89,33.89,0,0,1,2.23-5.21c1-1.68,1.95-2.89,1.2-3.83l-1.55,1.83c-1.49.28-5-.65-7.32-2.7-5.52-4.92-3.42-8.19-3.42-8.19l.64-1.25C70.12,375.69,69.17,376.16,67.63,377.92Z" style="fill:#37474f"></path><path d="M136.3,219.47c1.09,10,5.3,22.65,7.06,46.31,1.65,22.18,2.33,33.74.41,44.67-.68,3.89-2.79,8.4-6.72,14.05-12.3,17.71-36.27,45.41-36.27,45.41s-5.21-.28-11.34-5.71a18.43,18.43,0,0,1-5.93-12.68s.75-4.12,11-20.48,12.07-34.4,12.07-34.4l-3.81-71.18C117.64,227.39,129.13,225,136.3,219.47Z" style="fill:#263238"></path><path d="M89.44,364.2a18.43,18.43,0,0,1-5.93-12.68s.75-4.12,11-20.48,12.07-34.4,12.07-34.4l-2.92-54.49c11.77-1.43,28.09-.66,28.09-.66,0,7.78-2,17.34-13,22.73,0,0,.67,38.27.54,49.46-.1,8.53-3.26,30.15-4.76,39.92-7.62,9.26-13.72,16.31-13.72,16.31S95.57,369.63,89.44,364.2Z"></path><path d="M107.85,405.8l.13-1.71,2.84-34.81-24,5.23,4.31,28.16.13,1.46s0,7.12,10.61,7.92C107.32,412.46,107.85,405.8,107.85,405.8Z" style="fill:#f28f8f"></path><polygon points="93.9 437.13 102.26 434.28 102.81 426.2 94.3 429.15 93.9 437.13"></polygon><path d="M86.51,418.68c-.45,3,1.53,14.48,1.53,14.48l5.86,4,.4-8s1.61,1.53,3.23,5.82c1.52,4,2.79,7.07,6.64,9.23s8,2.83,13.82,2.27c4.11-.4,6.69-2.11,7.41-3.16a3.72,3.72,0,0,0,.3-1.68Z" style="fill:#263238"></path><path d="M108,404.09c1.13,0,1,1.06,2.17,7.81.86,5,4.49,15.7,7.76,19.45,2.87,3.29,8.45,4.47,7.79,10.28C123.07,445,114.15,446,109,444.45c-6.56-2-8.55-5.4-11-11.95-1.94-5.25-3.8-5.87-6.56-8.05-1.83-1.43-4.32-3.5-5-5.77,0-4.92,1.94-8.06,2.67-10.52.68-2.3.44-5.19,2-5.49l.13,1.46s1.28,4,8.67,4.42,7.9-2.75,7.9-2.75Z" style="fill:#37474f"></path><path d="M136.3,219.47s1.46,12.92-3,24.48c-3.88,10-10.84,15.52-18,17.64,0,0,.77,45.78,1.19,52.16s-1.87,29.37-3.73,44.49-2.45,20.3-2.45,20.3-3.25,3.3-12,3.15-11.45-4-11.45-4-5-17.74-4.7-31.51c.13-7.89,2-11.75.76-19.62s-10.71-43.08-12-59.65,2-31,13.94-47.43C96.77,228.17,124.89,227.15,136.3,219.47Z" style="fill:#263238"></path><path d="M89.75,222.2c-6.47,8.55-16,26.32-10.58,52.49,1.54,7.44,3.08,14.62,4.57,21.57,3.49,16.27,6.25,29.11,6.51,34a40.32,40.32,0,0,1-.68,8.18,71.34,71.34,0,0,0-.67,19.28c.82,8.34,2.12,17.12,3.07,23.07-.37-.11-.71-.23-1-.36-.94-5.94-2.19-14.49-3-22.62a71.27,71.27,0,0,1,.68-19.51,39.43,39.43,0,0,0,.66-8c-.26-4.8-3-17.61-6.49-33.84-1.49-6.95-3-14.13-4.56-21.58-5.44-26.35,4-44.33,10.61-53.08Z"></path></g><g id="freepik--Top--inject-6"><g id="freepik--Arm--inject-6"><path d="M119.79,158.55c6.75-.26,12.35,1.91,17.63,8.32,5.65,6.87,12.69,15,21.07,24.3l18-10.67,8.83,12s-18.42,15-25.48,18.25c-5.28,2.47-6.84.2-11.37-3.59-5-4.2-20-18.11-20-18.11Z" style="fill:#f28f8f"></path><path d="M158.49,191.17c-4,2.08-6.77,4.58-7.4,7.9-.18-5.19,4.89-8.25,6.3-9.14Z" style="fill:#b16668"></path><path d="M196.7,152.73l-9.54,36.36a2.33,2.33,0,0,1-1.14,1.37l-20.21,8.67-.78.33,9.91-37.77-.08-.06a.23.23,0,0,1-.07-.23.5.5,0,0,1,.3-.29l21-9,.06,0a.45.45,0,0,1,.47,0h0A.62.62,0,0,1,196.7,152.73Z" style="fill:#3899FA"></path><path d="M196.7,152.73l-9.54,36.36a2.33,2.33,0,0,1-1.14,1.37l-20.21,8.67-.78.33,9.91-37.77-.08-.06a.23.23,0,0,1-.07-.23.5.5,0,0,1,.3-.29l21-9,.06,0a.45.45,0,0,1,.47,0h0A.62.62,0,0,1,196.7,152.73Z" style="opacity:0.30000000000000004"></path><polygon points="174.37 161.72 196.64 152.59 197.37 153.34 174.74 162.1 174.37 161.72" style="fill:#f5f5f5"></polygon><path d="M174.29,161.29a.5.5,0,0,0,.16.51,1.45,1.45,0,0,0,1.46.25h0l21.62-8.48h0a.52.52,0,0,1,.51,0l0,0a.66.66,0,0,1,.08.61l-9.54,36.36a2.2,2.2,0,0,1-1.15,1.34l-21.62,8.49a1.46,1.46,0,0,1-1.46-.26.54.54,0,0,1-.16-.51Z" style="fill:#3899FA"></path><path d="M174.29,161.29a.5.5,0,0,0,.16.51,1.45,1.45,0,0,0,1.46.25h0l21.62-8.48h0a.52.52,0,0,1,.51,0l0,0a.66.66,0,0,1,.08.61l-9.54,36.36a2.2,2.2,0,0,1-1.15,1.34l-21.62,8.49a1.46,1.46,0,0,1-1.46-.26.54.54,0,0,1-.16-.51Z" style="opacity:0.2"></path><path d="M175.11,162.12a1.24,1.24,0,0,1-.66-.32.5.5,0,0,1-.16-.51l-10.07,38.35a.54.54,0,0,0,.16.51,1.15,1.15,0,0,0,.66.32Z" style="opacity:0.30000000000000004"></path><path d="M175.91,162.05a1.45,1.45,0,0,1-1.46-.25c-.32-.33-.19-.77.29-1h0l21-9c.25-.11.44-.09.55,0a1.08,1.08,0,0,1,.11.11l.16.17a.45.45,0,0,0-.47,0l-21,9a.5.5,0,0,0-.3.29.23.23,0,0,0,.07.23l.08.06a.9.9,0,0,0,.74,0l21.58-8.46a.48.48,0,0,1,.52.05l.11.12.16.16a.52.52,0,0,0-.51,0l-21.63,8.49Z" style="fill:#3899FA"></path><path id="freepik--world--inject-6" d="M175.91,175.46c-.65,2.49-.52,4.52.36,5.73s2.41,1.44,4.31.66a15.15,15.15,0,0,0,5.74-4.79,21,21,0,0,0,3.81-7.43c.66-2.49.53-4.52-.35-5.73l0-.05-.07-.09c-.9-1.08-2.39-1.27-4.2-.52a15,15,0,0,0-5.73,4.76l0,0-.12.16A21.3,21.3,0,0,0,175.91,175.46Zm8.5-10.85.49-.25.06,0-1.12,4.27a6.16,6.16,0,0,1-.84.26l-.13,0a3.53,3.53,0,0,1-1.29,0c.25-.53.51-1,.78-1.52A11.44,11.44,0,0,1,184.41,164.61Zm-2.29,2.61c-.29.52-.57,1.07-.84,1.64l-.15,0-.1,0a2.31,2.31,0,0,1-.76-.51,16.14,16.14,0,0,1,3.11-3A16.52,16.52,0,0,0,182.12,167.22Zm2.06,1.77a9,9,0,0,0,1-.52l.15-.1a13.52,13.52,0,0,0,1.63-1.24,19.08,19.08,0,0,1-.61,3.79l-3,1.22Zm2,2.58a30.75,30.75,0,0,1-1.46,4.11,3.45,3.45,0,0,0-1.29,0l-.14,0a5.28,5.28,0,0,0-.88.24l.81-3.12Zm-4.26,4.51a10.73,10.73,0,0,0-1,.48l-.15.09a13.53,13.53,0,0,0-1.64,1.17,20.35,20.35,0,0,1,.59-3.62l3-1.22Zm-2-2.52a30.35,30.35,0,0,1,1.41-4,3.83,3.83,0,0,0,1.34,0l.14,0a5.77,5.77,0,0,0,.9-.28l-.82,3.13ZM186,164c.46.13.77.67.9,1.59a6.63,6.63,0,0,1,.07,1,12.54,12.54,0,0,1-1.56,1.2l-.15.09a8.57,8.57,0,0,1-.88.48l1.11-4.25h.05A4.75,4.75,0,0,1,186,164Zm.9-.14a2.45,2.45,0,0,1,2,.76q-.57.69-1.17,1.29l-.14.15-.2.18a7.82,7.82,0,0,0-.07-1.12A3.26,3.26,0,0,0,186.86,163.84Zm2.22,1c.72,1,.85,2.71.36,4.76l-2.74,1.12a20.77,20.77,0,0,0,.64-4c.09-.09.19-.17.28-.27l.16-.15C188.22,165.88,188.66,165.4,189.08,164.88Zm.19,5.4a19.12,19.12,0,0,1-3.23,6.21,2.47,2.47,0,0,0-.77-.6l-.1,0-.2-.07a30.49,30.49,0,0,0,1.56-4.36Zm-3.67,6.77a16.12,16.12,0,0,1-2.93,2.77,16.54,16.54,0,0,0,1.25-1.95c.26-.46.51-1,.76-1.46l.13.05.1,0A2.23,2.23,0,0,1,185.6,177.05Zm-4,3.43-.49.25,0,0,1.12-4.25a7,7,0,0,1,.81-.22l.13,0a3.11,3.11,0,0,1,1.23.06c-.22.47-.45.93-.69,1.36A11.44,11.44,0,0,1,181.63,180.48Zm-1.55.63c-.45-.13-.77-.67-.9-1.59a8.36,8.36,0,0,1-.07-1.17,13.76,13.76,0,0,1,1.57-1.14l.15-.08c.3-.17.6-.32.89-.45L180.6,181l-.06,0A3.5,3.5,0,0,1,180.08,181.11Zm-.9.14a2.46,2.46,0,0,1-2.1-.86,18,18,0,0,1,1.26-1.34l.14-.14.21-.19a8.31,8.31,0,0,0,.08,1.27A3.27,3.27,0,0,0,179.18,181.25Zm-2.31-1.16a6.27,6.27,0,0,1-.28-4.61l2.75-1.12a20.26,20.26,0,0,0-.63,3.83l-.29.26-.15.15A18.19,18.19,0,0,0,176.87,180.09Zm-.11-5.25a19.21,19.21,0,0,1,3.07-6,2.7,2.7,0,0,0,.85.57l.1,0,.21.05a31.43,31.43,0,0,0-1.48,4.22Z" style="fill:#3899FA"></path><path d="M170.29,193.23l-.6.24,1.14-4.31.93-.39c.47-.19,1-.22.65.92l0,.11a2.27,2.27,0,0,1-1.34,1.74l-.35.14Zm1-2.48c.16-.06.39-.24.51-.73l0-.05c.13-.49-.05-.5-.21-.43l-.37.15-.32,1.22Z" style="fill:#3899FA"></path><path d="M174.35,187.7l-.42,4-.63.26.1-.88-.7.29-.38,1-.64.27,1.85-4.62ZM173,190.59l.47-.19.18-1.5Z" style="fill:#3899FA"></path><path d="M174.88,188.63l0-.06a2.46,2.46,0,0,1,1.34-1.7c.7-.29.89.06.62,1.07l0,.12-.59.24c.15-.56.1-.78-.2-.66l0,0a.93.93,0,0,0-.5.63v0c-.08.31,0,.44.35.36.59-.13.82.06.61.86v.06a2.45,2.45,0,0,1-1.38,1.73c-.67.28-.91,0-.64-1.07l0,0L175,190c-.14.54-.06.71.22.59h0a1,1,0,0,0,.55-.68v0c.08-.31,0-.43-.37-.35C174.88,189.62,174.68,189.41,174.88,188.63Z" style="fill:#3899FA"></path><path d="M177.19,187.68l0-.06a2.46,2.46,0,0,1,1.34-1.7c.7-.28.89.06.62,1.07l0,.12-.59.24c.15-.56.1-.78-.2-.65h0a.93.93,0,0,0-.5.63v0c-.08.31,0,.45.35.36.59-.13.82.06.61.86v.06a2.45,2.45,0,0,1-1.38,1.73c-.67.28-.91,0-.64-1.07l0-.05.59-.24c-.14.54,0,.71.22.6l0,0a1,1,0,0,0,.55-.68v0c.08-.31,0-.44-.37-.35C177.19,188.67,177,188.46,177.19,187.68Z" style="fill:#3899FA"></path><path d="M179.35,189.51l-.59.24,1.13-4.31.94-.39c.47-.19.95-.22.65.92l0,.11a2.29,2.29,0,0,1-1.34,1.74l-.35.14Zm1-2.48c.17-.06.4-.24.52-.73l0-.05c.13-.49-.06-.5-.22-.43l-.37.15-.32,1.22Z" style="fill:#3899FA"></path><path d="M181.42,186.84l.06-.23c.39-1.49.9-2.26,1.64-2.56s.93.18.54,1.67l-.06.22c-.39,1.5-.9,2.26-1.65,2.57S181,188.33,181.42,186.84Zm.76.89c.36-.15.59-.68.82-1.54l.05-.22c.23-.86.26-1.3-.11-1.15h0c-.37.15-.6.67-.83,1.54l-.06.22c-.22.86-.24,1.3.12,1.15Z" style="fill:#3899FA"></path><path d="M184,187.6l-.59.25,1.13-4.32.94-.38c.47-.19,1-.23.64.92l0,.11a2.72,2.72,0,0,1-.77,1.38v1.5l-.64.26,0-1.39-.31.12Zm1-2.47a1,1,0,0,0,.52-.73l0-.06c.13-.49-.06-.5-.22-.43l-.37.15-.32,1.22Z" style="fill:#3899FA"></path><path d="M186.74,186.48l-.59.24.93-3.54-.66.27.2-.77,1.91-.79-.2.78-.66.27Z" style="fill:#3899FA"></path><g style="opacity:0.2"><path id="freepik--world--inject-6" d="M175.91,175.46c-.65,2.49-.52,4.52.36,5.73s2.41,1.44,4.31.66a15.15,15.15,0,0,0,5.74-4.79,21,21,0,0,0,3.81-7.43c.66-2.49.53-4.52-.35-5.73l0-.05-.07-.09c-.9-1.08-2.39-1.27-4.2-.52a15,15,0,0,0-5.73,4.76l0,0-.12.16A21.3,21.3,0,0,0,175.91,175.46Zm8.5-10.85.49-.25.06,0-1.12,4.27a6.16,6.16,0,0,1-.84.26l-.13,0a3.53,3.53,0,0,1-1.29,0c.25-.53.51-1,.78-1.52A11.44,11.44,0,0,1,184.41,164.61Zm-2.29,2.61c-.29.52-.57,1.07-.84,1.64l-.15,0-.1,0a2.31,2.31,0,0,1-.76-.51,16.14,16.14,0,0,1,3.11-3A16.52,16.52,0,0,0,182.12,167.22Zm2.06,1.77a9,9,0,0,0,1-.52l.15-.1a13.52,13.52,0,0,0,1.63-1.24,19.08,19.08,0,0,1-.61,3.79l-3,1.22Zm2,2.58a30.75,30.75,0,0,1-1.46,4.11,3.45,3.45,0,0,0-1.29,0l-.14,0a5.28,5.28,0,0,0-.88.24l.81-3.12Zm-4.26,4.51a10.73,10.73,0,0,0-1,.48l-.15.09a13.53,13.53,0,0,0-1.64,1.17,20.35,20.35,0,0,1,.59-3.62l3-1.22Zm-2-2.52a30.35,30.35,0,0,1,1.41-4,3.83,3.83,0,0,0,1.34,0l.14,0a5.77,5.77,0,0,0,.9-.28l-.82,3.13ZM186,164c.46.13.77.67.9,1.59a6.63,6.63,0,0,1,.07,1,12.54,12.54,0,0,1-1.56,1.2l-.15.09a8.57,8.57,0,0,1-.88.48l1.11-4.25h.05A4.75,4.75,0,0,1,186,164Zm.9-.14a2.45,2.45,0,0,1,2,.76q-.57.69-1.17,1.29l-.14.15-.2.18a7.82,7.82,0,0,0-.07-1.12A3.26,3.26,0,0,0,186.86,163.84Zm2.22,1c.72,1,.85,2.71.36,4.76l-2.74,1.12a20.77,20.77,0,0,0,.64-4c.09-.09.19-.17.28-.27l.16-.15C188.22,165.88,188.66,165.4,189.08,164.88Zm.19,5.4a19.12,19.12,0,0,1-3.23,6.21,2.47,2.47,0,0,0-.77-.6l-.1,0-.2-.07a30.49,30.49,0,0,0,1.56-4.36Zm-3.67,6.77a16.12,16.12,0,0,1-2.93,2.77,16.54,16.54,0,0,0,1.25-1.95c.26-.46.51-1,.76-1.46l.13.05.1,0A2.23,2.23,0,0,1,185.6,177.05Zm-4,3.43-.49.25,0,0,1.12-4.25a7,7,0,0,1,.81-.22l.13,0a3.11,3.11,0,0,1,1.23.06c-.22.47-.45.93-.69,1.36A11.44,11.44,0,0,1,181.63,180.48Zm-1.55.63c-.45-.13-.77-.67-.9-1.59a8.36,8.36,0,0,1-.07-1.17,13.76,13.76,0,0,1,1.57-1.14l.15-.08c.3-.17.6-.32.89-.45L180.6,181l-.06,0A3.5,3.5,0,0,1,180.08,181.11Zm-.9.14a2.46,2.46,0,0,1-2.1-.86,18,18,0,0,1,1.26-1.34l.14-.14.21-.19a8.31,8.31,0,0,0,.08,1.27A3.27,3.27,0,0,0,179.18,181.25Zm-2.31-1.16a6.27,6.27,0,0,1-.28-4.61l2.75-1.12a20.26,20.26,0,0,0-.63,3.83l-.29.26-.15.15A18.19,18.19,0,0,0,176.87,180.09Zm-.11-5.25a19.21,19.21,0,0,1,3.07-6,2.7,2.7,0,0,0,.85.57l.1,0,.21.05a31.43,31.43,0,0,0-1.48,4.22Z" style="fill:#fff"></path><path d="M170.29,193.23l-.6.24,1.14-4.31.93-.39c.47-.19,1-.22.65.92l0,.11a2.27,2.27,0,0,1-1.34,1.74l-.35.14Zm1-2.48c.16-.06.39-.24.51-.73l0-.05c.13-.49-.05-.5-.21-.43l-.37.15-.32,1.22Z" style="fill:#fff"></path><path d="M174.35,187.7l-.42,4-.63.26.1-.88-.7.29-.38,1-.64.27,1.85-4.62ZM173,190.59l.47-.19.18-1.5Z" style="fill:#fff"></path><path d="M174.88,188.63l0-.06a2.46,2.46,0,0,1,1.34-1.7c.7-.29.89.06.62,1.07l0,.12-.59.24c.15-.56.1-.78-.2-.66l0,0a.93.93,0,0,0-.5.63v0c-.08.31,0,.44.35.36.59-.13.82.06.61.86v.06a2.45,2.45,0,0,1-1.38,1.73c-.67.28-.91,0-.64-1.07l0,0L175,190c-.14.54-.06.71.22.59h0a1,1,0,0,0,.55-.68v0c.08-.31,0-.43-.37-.35C174.88,189.62,174.68,189.41,174.88,188.63Z" style="fill:#fff"></path><path d="M177.19,187.68l0-.06a2.46,2.46,0,0,1,1.34-1.7c.7-.28.89.06.62,1.07l0,.12-.59.24c.15-.56.1-.78-.2-.65h0a.93.93,0,0,0-.5.63v0c-.08.31,0,.45.35.36.59-.13.82.06.61.86v.06a2.45,2.45,0,0,1-1.38,1.73c-.67.28-.91,0-.64-1.07l0-.05.59-.24c-.14.54,0,.71.22.6l0,0a1,1,0,0,0,.55-.68v0c.08-.31,0-.44-.37-.35C177.19,188.67,177,188.46,177.19,187.68Z" style="fill:#fff"></path><path d="M179.35,189.51l-.59.24,1.13-4.31.94-.39c.47-.19.95-.22.65.92l0,.11a2.29,2.29,0,0,1-1.34,1.74l-.35.14Zm1-2.48c.17-.06.4-.24.52-.73l0-.05c.13-.49-.06-.5-.22-.43l-.37.15-.32,1.22Z" style="fill:#fff"></path><path d="M181.42,186.84l.06-.23c.39-1.49.9-2.26,1.64-2.56s.93.18.54,1.67l-.06.22c-.39,1.5-.9,2.26-1.65,2.57S181,188.33,181.42,186.84Zm.76.89c.36-.15.59-.68.82-1.54l.05-.22c.23-.86.26-1.3-.11-1.15h0c-.37.15-.6.67-.83,1.54l-.06.22c-.22.86-.24,1.3.12,1.15Z" style="fill:#fff"></path><path d="M184,187.6l-.59.25,1.13-4.32.94-.38c.47-.19,1-.23.64.92l0,.11a2.72,2.72,0,0,1-.77,1.38v1.5l-.64.26,0-1.39-.31.12Zm1-2.47a1,1,0,0,0,.52-.73l0-.06c.13-.49-.06-.5-.22-.43l-.37.15-.32,1.22Z" style="fill:#fff"></path><path d="M186.74,186.48l-.59.24.93-3.54-.66.27.2-.77,1.91-.79-.2.78-.66.27Z" style="fill:#fff"></path></g><path d="M196,175.36c1.47-2.06,1.33-2.34.53-3.39a6.5,6.5,0,0,0-5.29-2.7c-1.82.06-3.65,0-4.59.51s-.13,2.45,2.23,3c3.73.83,3.71,1.84,3.71,1.84a47.91,47.91,0,0,0-4.81-.84,35.53,35.53,0,0,0-5.47.84c-1.57.25-1.88,2.28.79,3l-2.88.47c-2,.33-2.7,1.4-1.11,2.65a3,3,0,0,0,1.82.68s-2.15,0-2.19.71c-.12,2,1.21,2.59,5.55,3.84,4.14,1.19,5,3.42,4.18,5,0,0,1.66-1,3.14-2,1.09-.76,2-1.6,1.52-3.3,0,0,2.36,0,2.5-1.42a7.43,7.43,0,0,0-.57-3.13,2.6,2.6,0,0,0,1.3-2.43,4.21,4.21,0,0,0-.87-2.57Z" style="fill:#f28f8f"></path><path d="M183.09,177.57a13.12,13.12,0,0,1,2.61-.28,8.48,8.48,0,0,1,2.54.79,31.35,31.35,0,0,1,4.57,2.44,30.91,30.91,0,0,1-4.87-1.73,13.54,13.54,0,0,0-2.31-.92C184.85,177.75,183.94,177.73,183.09,177.57Z" style="fill:#b16668"></path><path d="M180.92,181.37a5.77,5.77,0,0,1,2.83-.09,15.39,15.39,0,0,1,2.7.84,26.52,26.52,0,0,1,4.93,2.63,54.13,54.13,0,0,1-5.22-1.92A14.55,14.55,0,0,0,180.92,181.37Z" style="fill:#b16668"></path></g><g id="freepik--Chest--inject-6"><path d="M75.75,195.32s5.08-1.75,7.61-12c1.16-4.66.25-11-.92-18.41l14.34-4.33s4.65-.71,14.82-1.36l8.19-.63s13,11.18,18.75,20.82c2.32,3.89,5.27,11.84-.61,21.57-.32,7.08-1.63,18.54-1.63,18.54S130.73,228,112.15,228c-26.65-.1-29.49-8.66-29.49-8.66C83,211.7,77.67,202.89,75.75,195.32Z" style="fill:#3899FA"></path><path d="M75.75,195.32s5.08-1.75,7.61-12c1.16-4.66.25-11-.92-18.41l14.34-4.33s4.65-.71,14.82-1.36l8.19-.63s13,11.18,18.75,20.82c2.32,3.89,5.27,11.84-.61,21.57-.32,7.08-1.63,18.54-1.63,18.54S130.73,228,112.15,228c-26.65-.1-29.49-8.66-29.49-8.66C83,211.7,77.67,202.89,75.75,195.32Z" style="fill:#fff;opacity:0.6000000000000001"></path><path d="M118.87,202.59s-4.55,6-14.7,4.54-12.32-9-12.32-9-.37,9.83,11.76,11.51C115.56,211.27,118.87,202.59,118.87,202.59Z" style="fill:#3899FA;opacity:0.2"></path></g><g id="freepik--Head--inject-6"><path d="M90,107.94a10.76,10.76,0,0,1,5.91-3.19c2.16-.39,3.46-.28,5.54-1s3.73-1.9,5.7-2.58c4.35-1.51,9.38-.07,12.84,3,1.52,1.35,2.92,3,4.91,3.49a21.38,21.38,0,0,0,3,.15,9.6,9.6,0,0,1,7.47,5.26,16.46,16.46,0,0,1,1.76,7.17c.09,2.47-.91,4.7-.92,7.14a8.71,8.71,0,0,0,2,4.87,16,16,0,0,1,3,5.74,11.32,11.32,0,0,1,.18,5.54,5.6,5.6,0,0,1-3.57,4,5.7,5.7,0,0,0-.38-5.33,6.41,6.41,0,0,1-1.27,4.78,13.31,13.31,0,0,1-3.8,3.32,18.85,18.85,0,0,1-10.95,3.19c-4-.27-8.06-1.92-12.15-1.13a32.47,32.47,0,0,0-3.33,1,28.13,28.13,0,0,1-5.8,1.16c-3,.29-7,.05-9.66-1.54a4.79,4.79,0,0,1-2.37-2.79,4.21,4.21,0,0,0,.42,3.31A13,13,0,0,1,79.41,148a9.53,9.53,0,0,1-.12-10.38,9.26,9.26,0,0,0-2,1.75,3.2,3.2,0,0,0-.74,2.48,7.37,7.37,0,0,1-.15-7.3,15.82,15.82,0,0,1,2.72-3.24c1.38-1.38,2.77-2.92,3.13-4.85a11.32,11.32,0,0,0,0-2.79,12.86,12.86,0,0,1,.27-4.29,5.59,5.59,0,0,1,2.21-3.13c.29-.21,3.52-1.89,3.56-1.61A8.91,8.91,0,0,1,90,107.94Z" style="fill:#263238"></path><path d="M88.49,131.68c2.66-.91,4.84.14,6.16,2.93,1.14,2.44,3.75,1.67,3.25-2.07,6.08-5.42-.66-9.22,4.38-14.49,3.14-3.29,9.58-2.18,12.1,0a6.36,6.36,0,0,1,7.43-2.7c2.69,1,4.37,2.73,5.55,6.54,1.24,4-.19,4.67.38,7.46a51.83,51.83,0,0,1,1.19,6c1.28,11.17-2.65,15.58-5.58,17.62a14.85,14.85,0,0,1-9.2,2.63l0,5.68s3.26,5,3.33,16.75c0,0-4.35-2.13-12.34-6.61-8.2-4.6-10.67-9.07-10.67-9.07V143.47h0c-.65,1.47-3.72,3-6.68.41C84.07,140.61,83.8,133.3,88.49,131.68Z" style="fill:#f28f8f"></path><path d="M114.38,118.07c.71-3.22,5.24-5.94,10.17-4,4.45,1.79,5.62,5.16,5.54,12.63-.06,5.55.42,6.13,1.75,7.06-3,.35-4.39-2.08-4.57-5.26s.31-9.63-4.58-11.73A8,8,0,0,0,114.38,118.07Z" style="fill:#3899FA"></path><path d="M125.75,126.26l-4.11-1.83a2.15,2.15,0,0,1,2.9-1.19A2.35,2.35,0,0,1,125.75,126.26Z" style="fill:#263238"></path><path d="M108.56,124.74l-3.9,2.24a2.16,2.16,0,0,1,.75-3A2.35,2.35,0,0,1,108.56,124.74Z" style="fill:#263238"></path><path d="M111.36,141.76l6.4,1.58a3.3,3.3,0,0,1-4.3,2.32A3.1,3.1,0,0,1,111.36,141.76Z" style="fill:#b16668"></path><path d="M115.28,145.72a3.46,3.46,0,0,0-3.68-2.83,2.84,2.84,0,0,0-.31.06,2.9,2.9,0,0,0,2.17,2.71A3.76,3.76,0,0,0,115.28,145.72Z" style="fill:#ffc4c3"></path><path d="M113.85,128.2l1.91,11.08,6.44-2.05C119.47,130.8,115.28,127.59,113.85,128.2Z" style="fill:#b16668"></path><path d="M109.79,130.94a1.88,1.88,0,1,1-1.88-1.88A1.89,1.89,0,0,1,109.79,130.94Z" style="fill:#263238"></path><path d="M124.87,130.56a1.89,1.89,0,1,1-1.88-1.89A1.88,1.88,0,0,1,124.87,130.56Z" style="fill:#263238"></path><path d="M114.15,155.6c-4.17-.38-11.24-.85-14.52-5.64,0,0,.36,2.8,4.53,5.11,2.94,1.62,10,2.5,10,2.5Z" style="fill:#b16668"></path></g><g id="freepik--chest--inject-6"><path d="M93.82,161.37s5.74,7.27,6.88,23.63c1.93,27.92-20.6,41.3-20.6,41.3a130.11,130.11,0,0,1-.35-13.68s10.39-11,9.27-22.24c-1.5-15-4.31-22.14-6.64-25.65C82.38,164.73,88.66,161.54,93.82,161.37Z" style="fill:#3899FA"></path><path d="M93.82,161.37s5.74,7.27,6.88,23.63c1.93,27.92-20.6,41.3-20.6,41.3a130.11,130.11,0,0,1-.35-13.68s10.39-11,9.27-22.24c-1.5-15-4.31-22.14-6.64-25.65C82.38,164.73,88.66,161.54,93.82,161.37Z" style="opacity:0.2"></path></g><g id="freepik--Headphones--inject-6"><path d="M119.84,158.7c-1.42-1.71-4.23-1.75-5.68-1.64l0,4.16a3.38,3.38,0,0,1,2.08,1.53c1,1.41,4.07,6.28,4.07,6.28l4.18-1.58S121.79,161.06,119.84,158.7Z" style="fill:#263238"></path><path d="M118.42,156.9a11.26,11.26,0,0,0-4.28-1.3l0,1.63c1.28.14,3.58.6,4.74,2.11s5.62,8.11,5.62,8.11l1-1C123.73,163.25,120.21,158.13,118.42,156.9Z" style="fill:#455a64"></path><path d="M128,167.91l-.16,0-.13,0-.15.05-.12,0-.14.07-.11.06-.14.09-.11.08-.13.11-.09.09,0,0-.1.11,0,0a.39.39,0,0,1-.08.1l-.06.09,0,.05,0,.06-.08.12-.06.1c0,.06-.07.13-.11.2l-.06.14,0,.08,0,.09c0,.07,0,.14-.08.22l0,.1v0c0,.13-.08.25-.11.39a7.74,7.74,0,0,0-.2,1.63,10.47,10.47,0,0,0,2.22,6.49c.17.2.34.39.52.57l.08.07.13.12.1.08.1.09.12.08.09.07.12.08.09.06.12.07.1.06.11.05.14.07.07,0,0,0,1-.3a4.36,4.36,0,0,1-1.42-.95,10,10,0,0,1-2.54-8.69,3.53,3.53,0,0,1,1.48-2.32H128Z" style="fill:#263238"></path><path d="M129,167.16a3.11,3.11,0,0,0-.44.08l-1,.3h0a2.71,2.71,0,0,1,1.36,0Z" style="fill:#37474f"></path><path d="M129.62,180.13l-.07,0-.14-.07-.11-.05-.07,0,0,0-.12-.07-.09-.06-.12-.08-.09-.07-.12-.08-.1-.09-.1-.08-.14-.12a.46.46,0,0,0-.07-.07,6.52,6.52,0,0,1-.5-.55,8.57,8.57,0,0,1-1.15-1.79,10,10,0,0,1-.66-1.7,10.33,10.33,0,0,1-.43-3v-.05a7.72,7.72,0,0,1,.2-1.62c0-.12.06-.24.1-.36l0-.05v0a2.31,2.31,0,0,1,.1-.28l0-.06a.36.36,0,0,0,0-.09l.06-.12.06-.13.08-.13,0,0,0,0,.06-.11.09-.12.11-.15.08-.1,0,0,.09-.1.09-.08,0,0,.07-.06,0,0,.05,0,.09-.07,0,0,.12-.07h0l0,0,.14-.07.12,0,.15-.05.13,0,.16,0h.42l.17,0h.13l.1,0,.11-.44a2.71,2.71,0,0,0-1.36,0h0l-.19.06,0,0a2.86,2.86,0,0,0-.52.27l0,0-.14.11,0,0c-.08.06-.15.14-.23.21l-.08.09-.1.11-.09.12-.1.13-.13.2-.06.11c0,.06-.07.12-.1.19l0,.09c0,.1-.09.19-.13.3l0,.07-.09.26,0,.1a3.57,3.57,0,0,0-.1.35,8,8,0,0,0-.19,2.37,10.79,10.79,0,0,0,.14,1.26c0,.21.08.42.13.63a13,13,0,0,0,.59,1.83,9.1,9.1,0,0,0,2,3,5.32,5.32,0,0,0,1.08.82l.65-.19Z" style="fill:#455a64"></path><path d="M130.65,169.49a9.12,9.12,0,0,1,2.31,7.93c-.62,2.56-2.67,3.16-4.57,1.34a9.13,9.13,0,0,1-2.32-7.93C126.69,168.27,128.74,167.67,130.65,169.49Z" style="fill:#3899FA"></path><path d="M134.17,179.11a13.49,13.49,0,0,0-3.42-11.71c-1.41-1.35-2.86-1.8-4.09-1.44-.34.1-1.7.49-2,.6-1.22.35-2.21,1.52-2.67,3.41a13.49,13.49,0,0,0,3.42,11.71c1.41,1.35,2.87,1.8,4.09,1.44l2-.6C132.72,182.17,133.71,181,134.17,179.11Z" style="fill:#3899FA"></path><path d="M134.17,179.11a13.49,13.49,0,0,0-3.42-11.71c-1.41-1.35-2.86-1.8-4.09-1.44-.34.1-1.7.49-2,.6-1.22.35-2.21,1.52-2.67,3.41a13.49,13.49,0,0,0,3.42,11.71c1.41,1.35,2.87,1.8,4.09,1.44l2-.6C132.72,182.17,133.71,181,134.17,179.11Z" style="opacity:0.35000000000000003"></path><path d="M128.71,168a13.49,13.49,0,0,1,3.43,11.72c-.93,3.78-3.95,4.66-6.77,2A13.49,13.49,0,0,1,122,170C122.87,166.19,125.9,165.3,128.71,168Z" style="opacity:0.1"></path><path d="M132.14,179.71A13.51,13.51,0,0,0,128.72,168c-1.41-1.34-2.87-1.79-4.1-1.43l-1,.29c-1.22.36-2.21,1.52-2.67,3.41A13.48,13.48,0,0,0,124.36,182c1.41,1.35,2.87,1.8,4.09,1.44l1-.3C130.69,182.76,131.68,181.6,132.14,179.71Z" style="fill:#f0f0f0"></path><path d="M127.7,168.29A13.46,13.46,0,0,1,131.12,180c-.92,3.79-4,4.67-6.76,2a13.48,13.48,0,0,1-3.42-11.72C121.86,166.48,124.89,165.6,127.7,168.29Z" style="fill:#e0e0e0"></path><path d="M131.56,180.11A14,14,0,0,0,128,168a5.94,5.94,0,0,0-2.66-1.57,3.58,3.58,0,0,0-1.87,0c-.34.1-1.71.49-2,.6-1.39.41-2.48,1.73-3,3.73A14,14,0,0,0,122,182.9a6,6,0,0,0,2.65,1.57,3.55,3.55,0,0,0,1.89,0l2-.59C130,183.44,131.07,182.12,131.56,180.11Z" style="fill:#455a64"></path><path d="M124.66,184.47A6,6,0,0,1,122,182.9a14,14,0,0,1-3.55-12.15c.69-2.84,2.6-4.31,4.86-3.76a5.92,5.92,0,0,1,2.65,1.57,14,14,0,0,1,3.55,12.15C128.83,183.54,126.92,185,124.66,184.47Z" style="fill:#37474f"></path><path d="M124.33,180.09a3,3,0,0,1-1.33-.78,7,7,0,0,1-1.77-6.07c.34-1.41,1.3-2.15,2.43-1.88a3,3,0,0,1,1.32.79,7,7,0,0,1,1.77,6.06C126.41,179.63,125.46,180.37,124.33,180.09Z" style="fill:#263238"></path><path d="M94.49,162.35v-6.6a17.91,17.91,0,0,0-2.17,2.34c-1.48,1.89.16,6.38,1.62,7.65A3.62,3.62,0,0,1,94.49,162.35Z" style="fill:#263238"></path><path d="M94.49,156.24v-1.72a30.76,30.76,0,0,0-4.19,3.6,9.45,9.45,0,0,0-2,9.48,27.19,27.19,0,0,0,2.46,5.57l6.14-2.51s-4.28-6.66-4.53-10.07A5.51,5.51,0,0,1,94.49,156.24Z" style="fill:#455a64"></path><path d="M107.16,183.26a15.52,15.52,0,0,0-6.09-12.63,6.61,6.61,0,0,0-3.19-1.23,3.83,3.83,0,0,0-2,.37l-2.13,1c-1.45.71-2.4,2.35-2.57,4.63a15.53,15.53,0,0,0,6.09,12.63,6.64,6.64,0,0,0,3.19,1.23,3.9,3.9,0,0,0,2.06-.38l2.1-1C106,187.19,107,185.54,107.16,183.26Z" style="fill:#455a64"></path><path d="M100.42,189.28a6.64,6.64,0,0,1-3.19-1.23,15.53,15.53,0,0,1-6.09-12.63c.24-3.23,2.06-5.19,4.63-5A6.64,6.64,0,0,1,99,171.65,15.48,15.48,0,0,1,105,184.28C104.8,187.51,103,189.47,100.42,189.28Z" style="fill:#37474f"></path><path d="M104.54,184.25a14.91,14.91,0,0,0-5.87-12.19c-1.78-1.21-3.46-1.44-4.73-.82l-1,.5c-1.28.62-2.15,2.07-2.31,4.22a14.94,14.94,0,0,0,5.87,12.18c1.79,1.22,3.46,1.44,4.74.83l1-.51C103.52,187.85,104.38,186.39,104.54,184.25Z" style="fill:#f0f0f0"></path><path d="M97.62,172.57a15,15,0,0,1,5.87,12.18c-.32,4.3-3.47,5.82-7,3.39A14.94,14.94,0,0,1,90.58,176C90.9,171.66,94.05,170.14,97.62,172.57Z" style="fill:#e0e0e0"></path><path d="M103.49,184.75a15,15,0,0,0-5.87-12.18c-1.78-1.21-3.46-1.44-4.73-.83l-2.12,1c-1.28.61-2.14,2.06-2.3,4.21a14.91,14.91,0,0,0,5.87,12.18c1.78,1.22,3.45,1.44,4.72.83l2.13-1C102.46,188.36,103.33,186.9,103.49,184.75Z" style="fill:#3899FA"></path><path d="M103.49,184.75a15,15,0,0,0-5.87-12.18c-1.78-1.21-3.46-1.44-4.73-.83l-2.12,1c-1.28.61-2.14,2.06-2.3,4.21a14.91,14.91,0,0,0,5.87,12.18c1.78,1.22,3.45,1.44,4.72.83l2.13-1C102.46,188.36,103.33,186.9,103.49,184.75Z" style="opacity:0.35000000000000003"></path><path d="M95.5,173.59a15,15,0,0,1,5.87,12.18c-.32,4.3-3.47,5.82-7,3.39A14.91,14.91,0,0,1,88.47,177C88.79,172.68,91.94,171.16,95.5,173.59Z" style="fill:#3899FA"></path><path d="M94.49,177.79a7.85,7.85,0,0,1,3.08,6.4c-.16,2.26-1.82,3.06-3.69,1.78a7.85,7.85,0,0,1-3.08-6.4C91,177.31,92.62,176.52,94.49,177.79Z" style="fill:#263238"></path><path d="M96.27,180,94,182l-2.18-4.52a2.48,2.48,0,0,1,2.49.43A6.87,6.87,0,0,1,96.27,180Z" style="fill:#455a64"></path><path d="M97.41,184.27a2.47,2.47,0,0,1-1.21,2.21L94,182,96.27,180A7.57,7.57,0,0,1,97.41,184.27Z" style="fill:#37474f"></path><path d="M96.2,186.48a2.46,2.46,0,0,1-2.48-.43,6.93,6.93,0,0,1-2-2.16L94,182Z" style="fill:#455a64"></path><path d="M94,182l-2.25,1.93a7.62,7.62,0,0,1-1.14-4.24,2.51,2.51,0,0,1,1.21-2.21Z" style="fill:#37474f"></path><path d="M144.25,249.82a.48.48,0,0,0-.54-.38.47.47,0,0,0-.38.54c.51,3-.39,4.75-1.8,5.74-2,1.43-5.83,1.78-8.17-.21-6.2-5.31-6.82-18.13-7.38-28.36a71.19,71.19,0,0,0-1-10.48,29.94,29.94,0,0,1,3.53-13.53l.9-1.69c3.51-6.56,6.28-11.75,4.71-21.25a.47.47,0,0,0-.54-.38.46.46,0,0,0-.38.53c1.52,9.19-1.05,14-4.61,20.66l-.9,1.69a31.69,31.69,0,0,0-3.6,12.52c-2.21-3-5.53-4.95-8.76-6.85-1.35-.8-2.63-1.56-3.81-2.38-4.82-3.35-9.7-7.6-12.78-16a.48.48,0,0,0-.6-.28.47.47,0,0,0-.27.6c3.17,8.59,8.18,13,13.12,16.4,1.2.83,2.5,1.6,3.87,2.41,3.54,2.09,7.2,4.26,9.22,7.73a69.92,69.92,0,0,1,1,10.3c.57,10.4,1.28,23.35,7.7,29a6.61,6.61,0,0,0,4.84,1.56,8.26,8.26,0,0,0,4.27-1.24C143.84,255.28,144.69,252.42,144.25,249.82Z" style="fill:#f5f5f5"></path></g><g id="freepik--arm--inject-6"><g id="freepik--book--inject-6"><polygon points="100.39 277.28 101.12 248.66 60.92 223.62 60.19 252.23 100.39 277.28"></polygon><path d="M100,248.92l-.79,27.65a10,10,0,0,0-5.42,3.05l.73-27.44S95.67,251.07,100,248.92Z" style="fill:#f5f5f5"></path><path d="M93.43,254.18a5.06,5.06,0,0,1,2.4-3.91l4.09-2.19c1.29-.69,2.3-.06,2.26,1.4l-.78,27.25-1,.55.69-26.85c0-.88-.58-1.25-1.35-.84l-3.78,2A3,3,0,0,0,94.51,254l-.71,26.82-1.14.62Z" style="fill:#263238"></path><path d="M92.66,281.42l-40.2-25,.77-27.24a5.06,5.06,0,0,1,2.4-3.91l4.09-2.2a1.59,1.59,0,0,1,1.62-.1l40.21,25a1.64,1.64,0,0,0-1.63.11l-4.09,2.19a5.06,5.06,0,0,0-2.4,3.91Z" style="fill:#37474f"></path><path d="M94.16,251.93a4.82,4.82,0,0,1,1.67-1.66l4.09-2.19a1.64,1.64,0,0,1,1.63-.11l-40.21-25a1.59,1.59,0,0,0-1.62.1l-4.09,2.2A4.65,4.65,0,0,0,54,226.89Z" style="fill:#455a64"></path><path d="M59.23,230.21a16.13,16.13,0,0,1,7.43-4l1.87,1.16a16.2,16.2,0,0,0-7.42,4Z" style="fill:#fafafa"></path><path d="M85.81,246.76a16.23,16.23,0,0,1,7.43-4l1.87,1.16a16.23,16.23,0,0,0-7.43,4Z" style="fill:#fafafa"></path></g><g id="freepik--book--inject-6"><path d="M88.2,254.38l-.93-.58s.11.56.33.72S88.2,254.38,88.2,254.38Z"></path><path d="M88,255.22a1.13,1.13,0,0,1-.79-1.47c.3-1.2,1-1.64.82-2s-6.07,2.84-6.07,2.84l4.65,1.58Z" style="fill:#3899FA"></path><path d="M88,255.22a1.13,1.13,0,0,1-.79-1.47c.3-1.2,1-1.64.82-2s-6.07,2.84-6.07,2.84l4.65,1.58Z" style="opacity:0.30000000000000004"></path><path d="M48.74,233.49l-.06,0,0,.67-.89,28.66,37.75,20.81c.59.36,1.08.22,1.09-.32l0-1,.84-26.8-.19-.09Z" style="fill:#3899FA"></path><path d="M48.74,233.49l-.06,0,0,.67-.89,28.66,37.75,20.81c.59.36,1.08.22,1.09-.32l0-1,.84-26.8-.19-.09Z" style="opacity:0.2"></path><path d="M79.29,256.38l.52,1.76,6.35-3.41c-.11-1.17,0-2,.69-2.51Z" style="fill:#455a64"></path><path d="M86.62,255.39l-.83,26.54a1.58,1.58,0,0,1-.76,1.23l-6.25,3.35.93-26.85a2.13,2.13,0,0,0,.65-1.59c-.11-.88.46-.47.46-.47l5.34-2.87C86.42,255.4,86.62,255.39,86.62,255.39Z" style="fill:#ebebeb"></path><path d="M79.3,256.91c0,.28.07.45.18.38l.2-.1c.22-.12.39.22.37.76a1.61,1.61,0,0,1-.42,1.2l-.2.11c-.12.06-.22.48-.23.93L42.61,237.37c0-.27,0-.67,0-.67a.52.52,0,0,1,.21-.27l.2-.11a1.62,1.62,0,0,0,.43-1.19c0-.55-.15-.89-.37-.77l-.2.11c-.12.06-.2-.11-.19-.38Z" style="fill:#3899FA"></path><path d="M79.3,256.91c0,.28.07.45.18.38l.2-.1c.22-.12.39.22.37.76a1.61,1.61,0,0,1-.42,1.2l-.2.11c-.12.06-.22.48-.23.93L42.61,237.37c0-.27,0-.67,0-.67a.52.52,0,0,1,.21-.27l.2-.11a1.62,1.62,0,0,0,.43-1.19c0-.55-.15-.89-.37-.77l-.2.11c-.12.06-.2-.11-.19-.38Z" style="fill:#fff;opacity:0.25"></path><path d="M42.69,236.73l-.06,0,0,.67L41.73,266l35.52,22c.59.36,1.08.22,1.1-.32l0-1,1.33-27.07Z" style="fill:#3899FA"></path><path d="M42.69,236.73l-.06,0,0,.67L41.73,266l35.52,22c.59.36,1.08.22,1.1-.32l0-1,1.33-27.07Z" style="fill:#fff;opacity:0.4"></path><path d="M42.7,234.57,79.4,257.3l.28-1.64L43.1,233a1.39,1.39,0,0,0-.37.77Z" style="fill:#3899FA"></path><path d="M42.7,234.57,79.4,257.3l.28-1.64L43.1,233a1.39,1.39,0,0,0-.37.77Z" style="fill:#fff;opacity:0.4"></path><path d="M51.69,228.56a.2.2,0,0,0-.08,0l0,0-.12,0h-.07a.91.91,0,0,0-.23,0l-.25,0-.27.09a.52.52,0,0,0-.16.06l-.13.05-.29.14-5.44,2.93A5,5,0,0,0,43.1,233l36.58,22.66,8.6-4.44L51.7,228.57Z" style="fill:#3899FA"></path><g style="opacity:0.7000000000000001"><path d="M51.69,228.56a.2.2,0,0,0-.08,0l0,0-.12,0h-.07a.91.91,0,0,0-.23,0l-.25,0-.27.09a.52.52,0,0,0-.16.06l-.13.05-.29.14-5.44,2.93A5,5,0,0,0,43.1,233l36.58,22.66,8.6-4.44L51.7,228.57Z" style="fill:#fff"></path></g><path d="M76.65,253.78l-4.41-2.73a21.14,21.14,0,0,1,8.45-4.53l4.41,2.73A21.14,21.14,0,0,0,76.65,253.78Z" style="fill:#fafafa"></path><path d="M52.09,238.57l-4.41-2.74a21.17,21.17,0,0,1,8.44-4.53L60.53,234A21.07,21.07,0,0,0,52.09,238.57Z" style="fill:#fafafa"></path><path d="M81.18,254.46l.4.74a3.72,3.72,0,0,0-1.42,1.22,1.07,1.07,0,0,1,.52.49,2.15,2.15,0,0,1,.21,1.07,3.34,3.34,0,0,1-.29,1.25l0,.08a1.41,1.41,0,0,1-.52.56l-.78,25.42,0,.86,0,1.1a.5.5,0,0,1-.24.46l-.86.46a.52.52,0,0,0,.25-.46v0l.09-2.91.76-24.59c0-.45.11-.88.23-.94l.19-.1a.66.66,0,0,0,.26-.36,2.37,2.37,0,0,0,.17-.84c0-.54-.15-.88-.37-.76l-.2.11c-.11.06-.19-.11-.18-.39v-.48C79.33,255.89,80.17,255,81.18,254.46Z" style="fill:#3899FA"></path><path d="M81.18,254.46l.4.74a3.72,3.72,0,0,0-1.42,1.22,1.07,1.07,0,0,1,.52.49,2.15,2.15,0,0,1,.21,1.07,3.34,3.34,0,0,1-.29,1.25l0,.08a1.41,1.41,0,0,1-.52.56l-.78,25.42,0,.86,0,1.1a.5.5,0,0,1-.24.46l-.86.46a.52.52,0,0,0,.25-.46v0l.09-2.91.76-24.59c0-.45.11-.88.23-.94l.19-.1a.66.66,0,0,0,.26-.36,2.37,2.37,0,0,0,.17-.84c0-.54-.15-.88-.37-.76l-.2.11c-.11.06-.19-.11-.18-.39v-.48C79.33,255.89,80.17,255,81.18,254.46Z" style="fill:#fff;opacity:0.6000000000000001"></path><path d="M81.58,255.2,87,252.28a1.67,1.67,0,0,1,.23-.12l.19-.08h0a2.38,2.38,0,0,0-.78,1.86,2,2,0,0,0,.2,1,1.1,1.1,0,0,0,.6.53v.26l-.77,24.58s0,.64,0,1.41c0,.13,0,.27,0,.41,0,.41,0,.83,0,1.19a.51.51,0,0,1-.25.39l.24-.13.62-.34a.45.45,0,0,0,.23-.36h0c0-.14,0-.29,0-.44a2.44,2.44,0,0,0,0-.27c0-.17,0-.33,0-.48s0-.2,0-.29v-.21c0-.22,0-.36,0-.36l.6-19.53.19-6.23c0-.44-.06-.76-.17-.72h0l-.19.11c-.24.13-.42-.21-.4-.75a1.11,1.11,0,0,1,.43-1l.23-.13c.13-.06.23-.18.22-.26a.57.57,0,0,0,0-.14c0-.08,0-.19,0-.31s0-.24,0-.38a.33.33,0,0,0-.23-.35l0,0-.13,0H88a.9.9,0,0,0-.23,0,1.11,1.11,0,0,0-.25,0l-.28.08-.16.06-.12.06-.3.14-5.44,2.92Z" style="fill:#3899FA"></path><path d="M81.58,255.2,87,252.28a1.67,1.67,0,0,1,.23-.12l.19-.08h0a2.38,2.38,0,0,0-.78,1.86,2,2,0,0,0,.2,1,1.1,1.1,0,0,0,.6.53v.26l-.77,24.58s0,.64,0,1.41c0,.13,0,.27,0,.41,0,.41,0,.83,0,1.19a.51.51,0,0,1-.25.39l.24-.13.62-.34a.45.45,0,0,0,.23-.36h0c0-.14,0-.29,0-.44a2.44,2.44,0,0,0,0-.27c0-.17,0-.33,0-.48s0-.2,0-.29v-.21c0-.22,0-.36,0-.36l.6-19.53.19-6.23c0-.44-.06-.76-.17-.72h0l-.19.11c-.24.13-.42-.21-.4-.75a1.11,1.11,0,0,1,.43-1l.23-.13c.13-.06.23-.18.22-.26a.57.57,0,0,0,0-.14c0-.08,0-.19,0-.31s0-.24,0-.38a.33.33,0,0,0-.23-.35l0,0-.13,0H88a.9.9,0,0,0-.23,0,1.11,1.11,0,0,0-.25,0l-.28.08-.16.06-.12.06-.3.14-5.44,2.92Z" style="fill:#fff;opacity:0.6000000000000001"></path></g><path d="M82.38,164.73c-13.69,2.62-14.71,6.31-18.54,20.55-4,14.82-5.26,19.29-7.17,25.8s-2.25,8.63-2.3,14.88c-.07,10.88.18,19.56,0,28.74,0,1.58-1,4.54-1.44,8A67.46,67.46,0,0,0,53,276c.34,1.85,2.78,5.2,5.4,7.43,1.07.91,6.35,1.91,8.57,1.91a4.14,4.14,0,0,0,3.32-1.61l-4.17-2.58a29.77,29.77,0,0,1-.75-6.63c.12-2.91,1.89-2.3,2.29-.21s.91,4.46,1.77,5.68,2.91,2,2.82,0,0-7.73-.27-9.24c-1-4.83-4-11.68-4-14.78,0-6.11,5.17-32.68,5.17-32.68s7.36-22.3,9-27.8C83.52,190.68,87.17,175.48,82.38,164.73Z" style="fill:#f28f8f"></path></g></g></g></g><g id="freepik--speech-bubble--inject-6"><g id="freepik--speech-bubble--inject-6"><g id="freepik--speech-bubble--inject-6"><path d="M67.84,93.53h0ZM33.26,76.16c4.63,9.4,15.51,17.36,34.55,17.37,8.49,0,15.34-1.59,20.75-4.18,3.65,4.48,11,6.14,16.41,4.05a.85.85,0,0,0,0-1.57c-5.44-2.28-7-6.13-7.43-8.85a27.21,27.21,0,0,0,4.82-6.82,31,31,0,0,0-2-31.35c-6.14-9.37-19.64-15.25-32.57-15.25S41.39,35.44,35.25,44.81A31,31,0,0,0,33.26,76.16Z" style="fill:#fff"></path><path d="M100,94.61c-4.37,0-8.87-1.79-11.49-4.87-5.79,2.72-12.73,4.09-20.64,4.1h-.06C45,93.82,36.2,82.85,33,76.3h0a31.29,31.29,0,0,1,2-31.66c6-9.21,19.23-15.4,32.82-15.4s26.79,6.19,32.83,15.4a31.29,31.29,0,0,1,2,31.66,27.18,27.18,0,0,1-4.77,6.79c.47,2.7,2.11,6.31,7.22,8.45a1.15,1.15,0,0,1,.71,1.1,1.12,1.12,0,0,1-.73,1.06A14.11,14.11,0,0,1,100,94.61ZM88.65,89l.16.2c3.47,4.27,10.67,6,16,4a.52.52,0,0,0,.33-.48.55.55,0,0,0-.33-.51c-5.47-2.29-7.16-6.21-7.62-9.09l0-.15.1-.12A26.69,26.69,0,0,0,102.09,76a30.71,30.71,0,0,0-2-31.05C94.28,36.08,81,29.87,67.81,29.87S41.35,36.08,35.51,45a30.71,30.71,0,0,0-2,31.05c3.16,6.41,11.82,17.18,34.27,17.19,7.93,0,14.86-1.4,20.62-4.15Z" style="fill:#455a64"></path></g><g id="freepik--graduation-cap--inject-6"><path d="M47.1,69.39l-.05-12.14h0c0-2.35,2-4.72,6.05-6.53,8.08-3.57,21.21-3.62,29.32-.11,4.1,1.78,6.13,4.12,6.09,6.47h0l0,12.1c0,2.34-2,5.93-6,7.73-8.08,3.57-21.21,3.63-29.32.11-4.05-1.75-6.08-5.29-6.1-7.61h0Z" style="fill:#263238"></path><polygon points="67.72 40.02 97.79 57.22 67.85 74.66 37.78 57.46 67.72 40.02" style="fill:#455a64"></polygon><polygon points="97.79 57.22 97.79 58.46 67.86 75.9 67.85 74.66 97.79 57.22" style="fill:#37474f"></polygon><polygon points="37.78 57.46 37.78 58.7 67.86 75.9 67.85 74.66 37.78 57.46" style="fill:#263238"></polygon><polygon points="86.03 65.31 67.86 77.76 49.65 65.48 67.86 75.9 86.03 65.31" style="opacity:0.1"></polygon><path d="M52.28,62.72,65.6,54.84a.65.65,0,0,1,.9.22.67.67,0,0,1-.14.83l-.1.07L52.93,63.85" style="fill:#e0e0e0"></path><path d="M50.31,74a2.18,2.18,0,0,0,2,0l1.71,8.36c0,2-5.28,2.06-5.29,0Z" style="fill:#3899FA"></path><path d="M50.24,80.13l-.31,3.49-.32-.13Z" style="opacity:0.15"></path><path d="M52.77,83.66,52,76.47l1.07,7.06Z" style="opacity:0.15"></path><path d="M51.58,83.85a1.82,1.82,0,0,1-.33,0l.14-5.21Z" style="opacity:0.15"></path><path d="M51.36,73.85a.66.66,0,0,0,.65-.66L52,65.54a2,2,0,0,1,1-1.69l-.65-1.13a3.26,3.26,0,0,0-1.63,2.83l.06,7.65A.65.65,0,0,0,51.36,73.85Z" style="fill:#e0e0e0"></path><path d="M52.79,73.19a1.41,1.41,0,0,0-1.43-1.42,1.43,1.43,0,1,0,1.43,1.42Z" style="fill:#3899FA"></path><path d="M49.94,73.28a1.12,1.12,0,0,0,1.59.54,1.19,1.19,0,0,0,0-2,1.43,1.43,0,1,1-1.61,1.5Z" style="opacity:0.15"></path></g></g></g></svg>
